# xmcd CD database file
#
# Track frame offsets:
#	150
#	33187
#	58597
#	88393
#	123591
#	149083
#	199392
#	231692
#	262961
#	333780
#
# Disc length: 4480 seconds
#
# Revision: 0
# Processed by: cddbd v1.4PL0 Copyright (c) Steve Scherf et al.
# Submitted via: CDex 1.50Beta5
#
DISCID=9c117e0a
DTITLE=Dave Eshelman - Milagro's Journey
DYEAR=2001
DGENRE=Jazz
TTITLE0=Catch Me Up
TTITLE1=Ralph's Piano Waltz
TTITLE2=My Song
TTITLE3=Lonely Woman
TTITLE4=Delta City Blues
TTITLE5=Milagro's Journey
TTITLE6=Samba Mozart
TTITLE7=One Heart, One Soul
TTITLE8=A Night in Tunisia/Caravan
TTITLE9=Data Track
EXTD=YEAR: 2001
EXTT0=
EXTT1=
EXTT2=
EXTT3=
EXTT4=
EXTT5=
EXTT6=
EXTT7=
EXTT8=
EXTT9=
PLAYORDER=
